<mxfile host="65bd71144e" modified="2021-11-01T07:17:37.657Z" agent="5.0 (Windows NT 10.0; Win64; x64) AppleWebKit/537.36 (KHTML, like Gecko) Code/1.61.2 Chrome/91.0.4472.164 Electron/13.5.1 Safari/537.36" etag="TsjR9tT9xSjxp5iKOKUO" version="15.6.3" type="embed">
    <diagram id="qFBaYM1PhQtqarSaAPPe" name="*ユーザ権限編集">
        <mxGraphModel dx="936" dy="430" grid="0" gridSize="10" guides="1" tooltips="1" connect="1" arrows="1" fold="1" page="0" pageScale="1" pageWidth="827" pageHeight="1169" math="0" shadow="0">
            <root>
                <mxCell id="0"/>
                <mxCell id="1" parent="0"/>
                <mxCell id="2" value="管理者" style="shape=umlActor;verticalLabelPosition=bottom;verticalAlign=top;html=1;" parent="1" vertex="1">
                    <mxGeometry x="-70" y="250" width="30" height="60" as="geometry"/>
                </mxCell>
                <mxCell id="3" value="ログイン済&lt;br&gt;ホーム画面" style="shape=umlBoundary;whiteSpace=wrap;html=1;fillColor=#dae8fc;strokeColor=#6c8ebf;" parent="1" vertex="1">
                    <mxGeometry x="120" y="120" width="100" height="80" as="geometry"/>
                </mxCell>
                <mxCell id="4" value="権限編集&lt;br&gt;画面" style="shape=umlBoundary;whiteSpace=wrap;html=1;fillColor=#dae8fc;strokeColor=#6c8ebf;" parent="1" vertex="1">
                    <mxGeometry x="120" y="360" width="100" height="80" as="geometry"/>
                </mxCell>
                <mxCell id="5" value="" style="endArrow=classic;html=1;rounded=0;" parent="1" edge="1">
                    <mxGeometry width="50" height="50" relative="1" as="geometry">
                        <mxPoint x="-20" y="280" as="sourcePoint"/>
                        <mxPoint x="110" y="159.9999999999999" as="targetPoint"/>
                    </mxGeometry>
                </mxCell>
                <mxCell id="20" value="「ユーザ権限マスタ」&lt;br&gt;を押下" style="edgeLabel;html=1;align=center;verticalAlign=middle;resizable=0;points=[];" parent="5" vertex="1" connectable="0">
                    <mxGeometry x="-0.2157" y="1" relative="1" as="geometry">
                        <mxPoint x="15" y="-16" as="offset"/>
                    </mxGeometry>
                </mxCell>
                <mxCell id="7" value="権限情報を取得する" style="ellipse;shape=umlControl;whiteSpace=wrap;html=1;fillColor=#f8cecc;strokeColor=#b85450;" parent="1" vertex="1">
                    <mxGeometry x="460" y="120" width="70" height="80" as="geometry"/>
                </mxCell>
                <mxCell id="8" value="更新する" style="ellipse;shape=umlControl;whiteSpace=wrap;html=1;fillColor=#f8cecc;strokeColor=#b85450;" parent="1" vertex="1">
                    <mxGeometry x="460" y="280" width="70" height="80" as="geometry"/>
                </mxCell>
                <mxCell id="9" value="" style="endArrow=classic;html=1;rounded=0;" parent="1" edge="1">
                    <mxGeometry width="50" height="50" relative="1" as="geometry">
                        <mxPoint x="240" y="159.9999999999999" as="sourcePoint"/>
                        <mxPoint x="440" y="160" as="targetPoint"/>
                    </mxGeometry>
                </mxCell>
                <mxCell id="10" value="権限情報" style="ellipse;shape=umlEntity;whiteSpace=wrap;html=1;fillColor=#d5e8d4;strokeColor=#82b366;" parent="1" vertex="1">
                    <mxGeometry x="690" y="200" width="80" height="80" as="geometry"/>
                </mxCell>
                <mxCell id="11" value="" style="endArrow=classic;html=1;rounded=0;startArrow=classic;startFill=1;" parent="1" edge="1">
                    <mxGeometry width="50" height="50" relative="1" as="geometry">
                        <mxPoint x="540" y="160" as="sourcePoint"/>
                        <mxPoint x="680" y="240" as="targetPoint"/>
                    </mxGeometry>
                </mxCell>
                <mxCell id="12" value="" style="endArrow=classic;html=1;rounded=0;" parent="1" edge="1">
                    <mxGeometry width="50" height="50" relative="1" as="geometry">
                        <mxPoint x="-20" y="280" as="sourcePoint"/>
                        <mxPoint x="110" y="400" as="targetPoint"/>
                    </mxGeometry>
                </mxCell>
                <mxCell id="23" value="従業員の選択、&lt;br&gt;権限の選択をし&lt;br&gt;「保存」を押下" style="edgeLabel;html=1;align=center;verticalAlign=middle;resizable=0;points=[];" parent="12" vertex="1" connectable="0">
                    <mxGeometry x="-0.1784" y="1" relative="1" as="geometry">
                        <mxPoint as="offset"/>
                    </mxGeometry>
                </mxCell>
                <mxCell id="13" value="更新内容を検証する" style="ellipse;shape=umlControl;whiteSpace=wrap;html=1;fillColor=#f8cecc;strokeColor=#b85450;" parent="1" vertex="1">
                    <mxGeometry x="460" y="440" width="70" height="80" as="geometry"/>
                </mxCell>
                <mxCell id="14" value="" style="endArrow=classic;startArrow=classic;html=1;rounded=0;" parent="1" edge="1">
                    <mxGeometry width="50" height="50" relative="1" as="geometry">
                        <mxPoint x="240" y="399.5" as="sourcePoint"/>
                        <mxPoint x="450" y="480" as="targetPoint"/>
                    </mxGeometry>
                </mxCell>
                <mxCell id="15" value="" style="endArrow=classic;html=1;rounded=0;" parent="1" edge="1">
                    <mxGeometry width="50" height="50" relative="1" as="geometry">
                        <mxPoint x="494.71" y="425" as="sourcePoint"/>
                        <mxPoint x="494.71" y="375" as="targetPoint"/>
                    </mxGeometry>
                </mxCell>
                <mxCell id="16" value="" style="endArrow=classic;html=1;rounded=0;startArrow=classic;startFill=1;" parent="1" edge="1">
                    <mxGeometry width="50" height="50" relative="1" as="geometry">
                        <mxPoint x="540" y="320" as="sourcePoint"/>
                        <mxPoint x="680" y="250" as="targetPoint"/>
                    </mxGeometry>
                </mxCell>
                <mxCell id="22" value="権限情報を&lt;br&gt;更新する" style="edgeLabel;html=1;align=center;verticalAlign=middle;resizable=0;points=[];" parent="16" vertex="1" connectable="0">
                    <mxGeometry x="0.1518" y="-1" relative="1" as="geometry">
                        <mxPoint as="offset"/>
                    </mxGeometry>
                </mxCell>
                <mxCell id="17" value="" style="endArrow=classic;html=1;rounded=0;" parent="1" edge="1">
                    <mxGeometry width="50" height="50" relative="1" as="geometry">
                        <mxPoint x="440" y="170" as="sourcePoint"/>
                        <mxPoint x="240" y="390" as="targetPoint"/>
                    </mxGeometry>
                </mxCell>
                <mxCell id="18" value="選択内容に問題があればエラーメッセージを&lt;br&gt;表示する" style="text;html=1;strokeColor=none;fillColor=none;align=center;verticalAlign=middle;whiteSpace=wrap;rounded=0;labelBackgroundColor=default;" parent="1" vertex="1">
                    <mxGeometry x="270" y="430" width="140" height="30" as="geometry"/>
                </mxCell>
                <mxCell id="19" value="ユーザ権限編集" style="rounded=0;whiteSpace=wrap;html=1;fillColor=#ffe6cc;strokeColor=#d79b00;fontStyle=1;fontSize=18;" parent="1" vertex="1">
                    <mxGeometry x="-120" y="80" width="189" height="60" as="geometry"/>
                </mxCell>
                <mxCell id="21" value="" style="curved=1;endArrow=classic;html=1;rounded=0;" parent="1" edge="1">
                    <mxGeometry width="50" height="50" relative="1" as="geometry">
                        <mxPoint x="540" y="300" as="sourcePoint"/>
                        <mxPoint x="540" y="170" as="targetPoint"/>
                        <Array as="points">
                            <mxPoint x="560" y="270"/>
                            <mxPoint x="580" y="210"/>
                        </Array>
                    </mxGeometry>
                </mxCell>
            </root>
        </mxGraphModel>
    </diagram>
</mxfile>